<?xml version="1.0" encoding="iso-8859-1"?>
<!-- Generator: Adobe Illustrator 19.0.0, SVG Export Plug-In . SVG Version: 6.00 Build 0)  -->
<svg version="1.1" id="Layer_1" xmlns="http://www.w3.org/2000/svg" xmlns:xlink="http://www.w3.org/1999/xlink" x="0px" y="0px"
	 viewBox="0 0 460.805 460.805" style="enable-background:new 0 0 460.805 460.805;" xml:space="preserve">
<g transform="translate(0 -952.36)">
	<path style="fill:#27BEC4;" d="M460.805,1182.763c0,127.248-103.155,230.403-230.403,230.403l0,0
		C103.155,1413.165,0,1310.01,0,1182.763S103.155,952.36,230.403,952.36S460.805,1055.515,460.805,1182.763
		C460.805,1182.763,460.805,1182.763,460.805,1182.763z"/>
	<path shape-rendering="auto" image-rendering="auto" color-rendering="auto" color-interpolation="sRGB" style="fill:#FFFFFF;" d="
		M99.93,1102.727c-12.228,0-22.07,10.244-22.07,22.64v229.74c42.069,37.318,96.334,57.961,152.57,58.04
		c59.838-0.006,117.326-23.292,160.3-64.93v-222.85c0-12.396-9.842-22.64-22.07-22.64H99.93z"/>
	<path style="fill:#FF642F;" d="M210.784,1121.3h47.022c2.686,0,4.849,2.162,4.849,4.849c0,2.686-2.163,4.849-4.849,4.849h-47.022
		c-2.686,0-4.849-2.163-4.849-4.849C205.935,1123.463,208.098,1121.3,210.784,1121.3z"/>
	<g transform="translate(0 952.36)">
		<path style="fill:#F2EBD9;" d="M105.7,191.577v232.25c10.267,6.657,21.048,12.485,32.24,17.43h184.62
			c14.171-6.194,27.683-13.799,40.33-22.7v-226.98H105.7z"/>
		<path style="fill:#FF642F;" d="M234.3,448.767c-5.84-0.001-10.575,4.73-10.58,10.57c0.003,0.374,0.027,0.748,0.07,1.12
			c2.212,0.142,4.425,0.252,6.64,0.33c4.804-0.02,9.606-0.19,14.4-0.51c0.031-0.312,0.047-0.626,0.05-0.94
			C244.875,453.497,240.139,448.766,234.3,448.767z"/>
	</g>
	<path style="fill:#27BEC4;" d="M168.55,1301.944h12.261c5.68,0,10.254,4.573,10.254,10.254v12.261
		c0,5.68-4.573,10.253-10.254,10.253H168.55c-5.68,0-10.254-4.573-10.254-10.253v-12.261
		C158.296,1306.517,162.869,1301.944,168.55,1301.944z"/>
	<path style="fill:#FFCE35;" d="M228.166,1301.944h12.261c5.68,0,10.254,4.573,10.254,10.254v12.261
		c0,5.68-4.573,10.253-10.254,10.253h-12.261c-5.68,0-10.254-4.573-10.254-10.253v-12.261
		C217.913,1306.517,222.486,1301.944,228.166,1301.944z"/>
	<path style="fill:#24566D;" d="M287.783,1301.944h12.261c5.68,0,10.254,4.573,10.254,10.254v12.261
		c0,5.68-4.573,10.253-10.254,10.253h-12.261c-5.68,0-10.254-4.573-10.254-10.253v-12.261
		C277.529,1306.517,282.102,1301.944,287.783,1301.944L287.783,1301.944z"/>
	<path style="fill:#27BEC4;" d="M138.412,1164.887h12.261c5.68,0,10.254,4.573,10.254,10.254v12.261
		c0,5.681-4.573,10.253-10.254,10.253h-12.261c-5.68,0-10.254-4.573-10.254-10.253v-12.261
		C128.158,1169.46,132.731,1164.887,138.412,1164.887z"/>
	<path style="fill:#FF642F;" d="M198.028,1164.887h12.261c5.68,0,10.254,4.573,10.254,10.254v12.261
		c0,5.681-4.573,10.253-10.254,10.253h-12.261c-5.68,0-10.254-4.573-10.254-10.253v-12.261
		C187.775,1169.46,192.348,1164.887,198.028,1164.887z"/>
	<path style="fill:#24566D;" d="M257.975,1164.887h12.261c5.68,0,10.254,4.573,10.254,10.254v12.261
		c0,5.681-4.573,10.253-10.254,10.253h-12.261c-5.68,0-10.254-4.573-10.254-10.253v-12.261
		C247.721,1169.46,252.294,1164.887,257.975,1164.887z"/>
	<path style="fill:#FFFFFF;" d="M317.591,1164.887h12.261c5.68,0,10.254,4.573,10.254,10.254v12.261
		c0,5.681-4.573,10.253-10.254,10.253h-12.261c-5.68,0-10.254-4.573-10.254-10.253v-12.261
		C307.337,1169.46,311.911,1164.887,317.591,1164.887z"/>
	<path style="fill:#FFCE35;" d="M138.412,1234.478h12.261c5.68,0,10.254,4.573,10.254,10.254v12.261
		c0,5.68-4.573,10.253-10.254,10.253h-12.261c-5.68,0-10.254-4.573-10.254-10.253v-12.261
		C128.158,1239.052,132.731,1234.478,138.412,1234.478z"/>
	<path style="fill:#24566D;" d="M198.028,1234.478h12.261c5.68,0,10.254,4.573,10.254,10.254v12.261
		c0,5.68-4.573,10.253-10.254,10.253h-12.261c-5.68,0-10.254-4.573-10.254-10.253v-12.261
		C187.775,1239.052,192.348,1234.478,198.028,1234.478z"/>
	<path style="fill:#27BEC4;" d="M257.975,1234.478h12.261c5.68,0,10.254,4.573,10.254,10.254v12.261
		c0,5.68-4.573,10.253-10.254,10.253h-12.261c-5.68,0-10.254-4.573-10.254-10.253v-12.261
		C247.721,1239.052,252.294,1234.478,257.975,1234.478z"/>
	<path style="fill:#FF642F;" d="M317.591,1234.478h12.261c5.68,0,10.254,4.573,10.254,10.254v12.261
		c0,5.68-4.573,10.253-10.254,10.253h-12.261c-5.68,0-10.254-4.573-10.254-10.253v-12.261
		C307.337,1239.052,311.911,1234.478,317.591,1234.478z"/>
</g>
<g>
</g>
<g>
</g>
<g>
</g>
<g>
</g>
<g>
</g>
<g>
</g>
<g>
</g>
<g>
</g>
<g>
</g>
<g>
</g>
<g>
</g>
<g>
</g>
<g>
</g>
<g>
</g>
<g>
</g>
</svg>
